<svg width="329" height="205" viewBox="0 0 329 205" fill="none" xmlns="http://www.w3.org/2000/svg">
<path d="M108.391 -4.82261e-05C111.619 -4.85082e-05 114.85 1.16603 117.314 3.50205C122.243 8.17411 122.243 15.7458 117.314 20.414L30.9328 102.292L117.31 184.165C122.235 188.837 122.235 196.409 117.31 201.077C112.381 205.749 104.393 205.749 99.464 201.077L4.1633 110.746C-0.761661 106.074 -0.761662 98.5019 4.1633 93.8337L99.464 3.50206C101.933 1.16991 105.16 -4.79436e-05 108.391 -4.82261e-05Z" fill="#3F2305"/>
<path d="M13.0907 90.3317L315.912 90.3317C322.879 90.3317 328.53 95.6879 328.53 102.292C328.53 108.896 322.879 114.252 315.912 114.252L13.0907 114.252C6.1236 114.252 0.472793 108.896 0.472793 102.292C0.472792 95.6879 6.1236 90.3317 13.0907 90.3317Z" fill="#3F2305"/>
</svg>
