<svg width="329" height="205" viewBox="0 0 329 205" fill="none" xmlns="http://www.w3.org/2000/svg">
<path d="M220.609 204.581C217.381 204.581 214.15 203.415 211.686 201.079C206.757 196.407 206.757 188.836 211.686 184.167L298.067 102.29L211.69 20.416C206.765 15.7439 206.765 8.17221 211.69 3.50404C216.619 -1.16801 224.607 -1.16801 229.536 3.50404L324.837 93.8357C329.762 98.5077 329.762 106.079 324.837 110.748L229.536 201.079C227.067 203.411 223.84 204.581 220.609 204.581Z" fill="#3F2305"/>
<path d="M315.909 114.25H13.0876C6.12052 114.25 0.469727 108.893 0.469727 102.29C0.469727 95.6857 6.12052 90.3296 13.0876 90.3296H315.909C322.876 90.3296 328.527 95.6857 328.527 102.29C328.527 108.893 322.876 114.25 315.909 114.25Z" fill="#3F2305"/>
</svg>
